<svg xmlns="http://www.w3.org/2000/svg" stroke="#000" viewBox="192 25 117 117">
    <path d="M209.1 115h-6.9q-8.2-12.7-8.2-30.6 0-17.8 8.2-30.2h7q-7.6 13-7.6 30.1t7.5 30.7Zm13.4-30.1h.2l4-12.2h8.9l-6.1 16 6.3 16.7h-8.7l-4.4-12.7h-.3l-4.2 12.7h-8.8l6.3-16.8-6-15.9h8.7l4 12.2Zm20 20.5h-3.9v-9.5h9.3v3.8q-.1 4.8-1.1 7.8-1.1 2.9-4.4 7.3l-3.6-1.7q3-4.7 3.6-7.7Zm20.7-18V72.7h8.6v14.8q0 5.5 2.3 9.3h3.7q2-3.7 2-9.3V72.7h8.6V87q0 4.8-1.3 8.4-1.2 3.7-4 8.3l-4.3 7q-1.2 2-2.5 2.9-1.2 1-3.3 1.4h-10.1v-6.7h7q1.3-.4 2.2-1.4.9-1 1.8-2.7l.4-.7h-4.4q-3-2.5-4.9-6.8-1.8-4.2-1.8-9.3Zm34.6 27.6h-6.9q7.6-13.6 7.6-30.7t-7.7-30.1h7q8.1 12.4 8.1 30.2 0 17.9-8.2 30.6Z"/>
</svg>
